# xmcd CD database file
#
# Track frame offsets:
#	150
#	12292
#	24822
#	39320
#	52927
#	64057
#	76817
#	89470
#	102895
#	116342
#	128997
#	141502
#	157082
#	169910
#	184252
#	194807
#	208580
#	222687
#	238260
#	251387
#	262705
#	276612
#
# Disc length: 3864 seconds
#
# Revision: 0
# Processed by: cddbd v1.4PL0 Copyright (c) Steve Scherf et al.
# Submitted via: CDex 1.50beta10
#
DISCID=420f1616
DTITLE=Svend Asmussen - Svend Asmussen - Musical Miracle (Vol. 1_1935-40)
DYEAR=1994
DGENRE=Jazz
TTITLE0=Tiger Rag
TTITLE1=My Blue Heaven
TTITLE2=Jazz Potpourri 1
TTITLE3=Jazz Potpourri 2
TTITLE4=Memories Of You
TTITLE5=Sweet Sue
TTITLE6=Limehouse Blues
TTITLE7=Tea For Two
TTITLE8=June Night
TTITLE9=Honeysuckle Rose
TTITLE10=My Blue Heaven
TTITLE11=Stardust
TTITLE12=Put On Your Old Grey Bonnet
TTITLE13=Night And Day
TTITLE14=Some Of These Days
TTITLE15=After You've Gone
TTITLE16=Whispering
TTITLE17=My Melancholy Baby
TTITLE18=Sweet Sue
TTITLE19=Limehouse Blues
TTITLE20=Japanese Sandman
TTITLE21=Lady Be Good
EXTD=YEAR: 1994
EXTT0=
EXTT1=
EXTT2=
EXTT3=
EXTT4=
EXTT5=
EXTT6=
EXTT7=
EXTT8=
EXTT9=
EXTT10=
EXTT11=
EXTT12=
EXTT13=
EXTT14=
EXTT15=
EXTT16=
EXTT17=
EXTT18=
EXTT19=
EXTT20=
EXTT21=
PLAYORDER=
